<svg width="561" height="650" viewBox="0 0 561 650" fill="none" xmlns="http://www.w3.org/2000/svg">
<rect x="23" y="31" width="141" height="504" rx="70.5" fill="url(#paint0_linear_1_67)"/>
<path d="M189 31H382.526C456.242 31 516 90.7582 516 164.474V164.474C516 265.832 433.832 348 332.474 348H189V31Z" fill="url(#paint1_linear_1_67)"/>
<path d="M189 200H322.053C429.167 200 516 286.833 516 393.947V393.947C516 471.849 452.849 535 374.947 535H189V200Z" fill="url(#paint2_linear_1_67)" fill-opacity="0.9"/>
<path d="M189 160H379C390.046 160 399 168.954 399 180V180C399 191.046 390.046 200 379 200H189V160Z" fill="white"/>
<path d="M189 348H379C390.046 348 399 356.954 399 368V368C399 379.046 390.046 388 379 388H189V348Z" fill="white"/>
<path d="M59.0988 642V597.2H77.4668C80.5814 597.2 83.2054 597.691 85.3388 598.672C87.4721 599.653 89.0721 601.019 90.1388 602.768C91.2481 604.475 91.8028 606.459 91.8028 608.72C91.8028 610.981 91.3121 612.88 90.3308 614.416C89.3494 615.952 88.0481 617.147 86.4268 618C84.8481 618.811 83.1201 619.28 81.2428 619.408L82.2028 618.704C84.2508 618.789 86.0641 619.344 87.6428 620.368C89.2641 621.349 90.5228 622.672 91.4188 624.336C92.3574 626 92.8268 627.813 92.8268 629.776C92.8268 632.165 92.2508 634.277 91.0988 636.112C89.9894 637.947 88.3254 639.397 86.1068 640.464C83.9308 641.488 81.2641 642 78.1068 642H59.0988ZM67.7388 634.96H76.6988C79.0454 634.96 80.8588 634.427 82.1388 633.36C83.4188 632.293 84.0588 630.757 84.0588 628.752C84.0588 626.747 83.3974 625.189 82.0748 624.08C80.7521 622.928 78.9174 622.352 76.5708 622.352H67.7388V634.96ZM67.7388 615.888H76.0588C78.3201 615.888 80.0481 615.376 81.2428 614.352C82.4374 613.328 83.0348 611.877 83.0348 610C83.0348 608.165 82.4374 606.736 81.2428 605.712C80.0481 604.645 78.2988 604.112 75.9948 604.112H67.7388V615.888ZM94.7263 642L108.934 597.2H123.078L137.222 642H128.07L116.166 602.256H115.91L103.75 642H94.7263ZM101.958 629.136L104.198 622.416H127.046L129.286 629.136H101.958ZM139.911 642V597.2H150.599L168.903 630.416H169.159V597.2H177.799V642H167.111L148.807 608.848H148.551V642H139.911ZM215.92 649.04L199.664 623.376H209.584L226.288 649.04H215.92ZM205.36 642.768C200.923 642.768 197.019 641.787 193.648 639.824C190.32 637.861 187.696 635.152 185.776 631.696C183.856 628.197 182.896 624.165 182.896 619.6C182.896 615.035 183.856 611.024 185.776 607.568C187.696 604.069 190.32 601.339 193.648 599.376C197.019 597.413 200.923 596.432 205.36 596.432C209.84 596.432 213.766 597.413 217.136 599.376C220.55 601.339 223.195 604.069 225.072 607.568C226.95 611.024 227.888 615.035 227.888 619.6C227.888 624.165 226.95 628.197 225.072 631.696C223.195 635.152 220.55 637.861 217.136 639.824C213.766 641.787 209.84 642.768 205.36 642.768ZM205.36 635.024C208.176 635.024 210.608 634.405 212.656 633.168C214.704 631.888 216.283 630.096 217.392 627.792C218.502 625.488 219.056 622.757 219.056 619.6C219.056 616.4 218.502 613.669 217.392 611.408C216.283 609.104 214.704 607.333 212.656 606.096C210.608 604.859 208.176 604.24 205.36 604.24C202.63 604.24 200.24 604.859 198.192 606.096C196.144 607.333 194.544 609.104 193.392 611.408C192.283 613.669 191.728 616.4 191.728 619.6C191.728 622.757 192.283 625.488 193.392 627.792C194.544 630.096 196.144 631.888 198.192 633.168C200.24 634.405 202.63 635.024 205.36 635.024ZM250.444 642.768C247.159 642.768 244.172 642.107 241.484 640.784C238.796 639.461 236.663 637.477 235.084 634.832C233.506 632.187 232.716 628.816 232.716 624.72V597.2H241.356V624.784C241.356 627.003 241.719 628.88 242.444 630.416C243.17 631.909 244.236 633.019 245.644 633.744C247.052 634.469 248.716 634.832 250.636 634.832C252.599 634.832 254.263 634.469 255.628 633.744C256.994 633.019 258.039 631.909 258.764 630.416C259.532 628.88 259.916 627.003 259.916 624.784V597.2H268.556V624.72C268.556 628.816 267.724 632.187 266.06 634.832C264.439 637.477 262.263 639.461 259.532 640.784C256.802 642.107 253.772 642.768 250.444 642.768ZM273.974 642V597.2H303.478V604.176H282.614V615.888H301.558V622.608H282.614V635.024H303.478V642H273.974ZM305.726 642L319.934 597.2H334.078L348.222 642H339.07L327.166 602.256H326.91L314.75 642H305.726ZM312.958 629.136L315.198 622.416H338.046L340.286 629.136H312.958ZM350.911 642V597.2H361.599L379.903 630.416H380.159V597.2H388.799V642H378.111L359.807 608.848H359.551V642H350.911ZM394.536 642V597.2H410.088C415.294 597.2 419.603 598.139 423.016 600.016C426.43 601.851 428.947 604.453 430.568 607.824C432.232 611.152 433.064 615.077 433.064 619.6C433.064 624.123 432.232 628.069 430.568 631.44C428.947 634.768 426.43 637.371 423.016 639.248C419.646 641.083 415.336 642 410.088 642H394.536ZM403.176 634.576H409.64C413.31 634.576 416.211 633.979 418.344 632.784C420.478 631.589 421.992 629.883 422.888 627.664C423.784 625.403 424.232 622.715 424.232 619.6C424.232 616.443 423.784 613.755 422.888 611.536C421.992 609.275 420.478 607.547 418.344 606.352C416.211 605.157 413.31 604.56 409.64 604.56H403.176V634.576ZM459.985 642.768C455.548 642.768 451.644 641.787 448.273 639.824C444.945 637.861 442.321 635.152 440.401 631.696C438.481 628.197 437.521 624.165 437.521 619.6C437.521 615.035 438.481 611.024 440.401 607.568C442.321 604.069 444.945 601.339 448.273 599.376C451.644 597.413 455.548 596.432 459.985 596.432C464.465 596.432 468.391 597.413 471.761 599.376C475.175 601.339 477.82 604.069 479.697 607.568C481.575 611.024 482.513 615.035 482.513 619.6C482.513 624.165 481.575 628.197 479.697 631.696C477.82 635.152 475.175 637.861 471.761 639.824C468.391 641.787 464.465 642.768 459.985 642.768ZM459.985 635.024C462.801 635.024 465.233 634.405 467.281 633.168C469.329 631.888 470.908 630.096 472.017 627.792C473.127 625.488 473.681 622.757 473.681 619.6C473.681 616.4 473.127 613.669 472.017 611.408C470.908 609.104 469.329 607.333 467.281 606.096C465.233 604.859 462.801 604.24 459.985 604.24C457.255 604.24 454.865 604.859 452.817 606.096C450.769 607.333 449.169 609.104 448.017 611.408C446.908 613.669 446.353 616.4 446.353 619.6C446.353 622.757 446.908 625.488 448.017 627.792C449.169 630.096 450.769 631.888 452.817 633.168C454.865 634.405 457.255 635.024 459.985 635.024Z" fill="url(#paint3_linear_1_67)"/>
<defs>
<linearGradient id="paint0_linear_1_67" x1="97.4167" y1="31" x2="99.2182" y2="403.959" gradientUnits="userSpaceOnUse">
<stop stop-color="#06B6D4"/>
<stop offset="0.845273" stop-color="#331F7D"/>
</linearGradient>
<linearGradient id="paint1_linear_1_67" x1="352.5" y1="31" x2="352.5" y2="348" gradientUnits="userSpaceOnUse">
<stop offset="0.454545" stop-color="#06B6D4"/>
<stop offset="0.838384" stop-color="#035E6E"/>
</linearGradient>
<linearGradient id="paint2_linear_1_67" x1="352.5" y1="200" x2="352.5" y2="535" gradientUnits="userSpaceOnUse">
<stop offset="0.317308" stop-color="#331F7D"/>
<stop offset="1" stop-color="#280F50"/>
</linearGradient>
<linearGradient id="paint3_linear_1_67" x1="-10" y1="620.5" x2="551" y2="620.5" gradientUnits="userSpaceOnUse">
<stop stop-color="#06B6D4"/>
<stop offset="1" stop-color="#331F7D"/>
</linearGradient>
</defs>
</svg>
